PathFileType	4	(X/Y/Z)	C:/Users/beibeiliu/ov580/test_trc/User3\sequence.22_training_dense_left.trc
DataRate	CameraRate	NumFrames	NumMarkers	Units	OrigDataRate	OrigDataStartFrame	OrigNumFrames
120	120	7	19	mm	120	49	96
Frame#	Time	ThumbCMC			ThumbMCP			ThumbIP			ThumbTip			IndexMCP			IndexPIP			IndexTip			MiddleMCP			MiddlePIP			MiddleTip			RingMCP			RingPIP			RingTip			PinkyMCP			PinkyPIP			PinkyTip			BackHand1			BackHand2			BackHand3	
		X0	Y0	Z0	X1	Y1	Z1	X2	Y2	Z2	X3	Y3	Z3	X4	Y4	Z4	X5	Y5	Z5	X6	Y6	Z6	X7	Y7	Z7	X8	Y8	Z8	X9	Y9	Z9	X10	Y10	Z10	X11	Y11	Z11	X12	Y12	Z12	X13	Y13	Z13	X14	Y14	Z14	X15	Y15	Z15	X16	Y16	Z16	X17	Y17	Z17	X18	Y18	Z18	
48	0.4	-133.403	-9.28619	34.0175	-119.127	-19.2009	4.69095	-107.02	-24.9951	-25.9767	-115.113	-33.6063	-48.317	-143.566	13.0007	-38.734	-132.474	-5.39793	-59.941	-123.52	-32.0892	-67.4129	-173.674	17.536	-42.0505	-164.07	16.4409	-73.4772	-153.948	4.95735	-103.148	-188.189	7.33714	-35.8866	-191.126	7.69052	-65.4865	-181.511	2.94008	-93.3435	-206.456	-10.9351	-30.0903	-205.369	-11.6875	-53.2917	-204.854	-14.7361	-72.1929	-197.586	2.14696	18.412	-197.204	-3.54807	42.3696	-169.375	12.1311	34.0833	
49	0.408333	-133.736	-10.0986	29.3145	-122.609	-20.5802	3.8486	-113.478	-27.5851	-25.1583	-116.033	-36.2941	-49.6549	-146.757	9.39013	-41.8517	-133.545	-10.2492	-61.1221	-125.593	-35.1138	-66.4914	-175.67	16.8441	-44.7078	-170.125	12.8956	-73.5419	-163.224	0.55258	-105.557	-194.686	6.44706	-38.6304	-192.239	7.28747	-66.5849	-190.57	0.874509	-92.53	-206.381	-12.2776	-24.3495	-207.604	-12.3127	-49.8169	-211.962	-16.1611	-75.2835	-200.055	3.60441	14.9953	-197.662	-4.64477	43.3445	-170.196	11.6597	31.5695	
50	0.416667	-138.588	-14.0133	33.3385	-123.02	-21.9865	2.83204	-115.602	-29.8723	-24.0507	-115.746	-38.9811	-49.0015	-149.46	8.57588	-38.3351	-140.662	-12.2453	-64.5136	-129.291	-37.1246	-67.2179	-178.87	12.9919	-45.4989	-173.457	10.5024	-75.6021	-166.866	-0.789266	-103.368	-196.301	3.91496	-37.7668	-197.368	3.92922	-68.5097	-192.115	-1.91014	-96.1659	-211.866	-14.6349	-30.5598	-215.806	-16.1906	-50.9235	-213.831	-16.7023	-73.2455	-202.832	0.130129	15.5197	-205.159	-5.88165	41.2952	-174.173	9.58624	29.8256	
51	0.425	-139.529	-16.0435	32.1373	-119.23	-22.7419	4.84008	-114.787	-29.4327	-23.9615	-119.953	-38.7006	-51.6344	-152.734	7.10089	-43.6578	-141.087	-12.0695	-66.7245	-133.576	-42.9782	-67.5647	-178.581	12.5697	-47.1189	-171.458	12.6444	-74.6314	-166.121	-2.46784	-110.124	-194.727	3.95984	-41.312	-194.31	5.49117	-69.9857	-194.801	-1.77828	-95.1512	-215.783	-16.7823	-30.5118	-215.663	-16.1242	-56.9428	-212.64	-18.8395	-78.0552	-202.127	-0.859253	10.8477	-207.447	-9.46745	38.8444	-172.996	8.89127	26.9846	
52	0.433333	-142.789	-14.6003	26.8603	-121.51	-19.9937	5.20297	-110.896	-24.1493	-30.6266	-122.005	-35.015	-51.3007	-154.029	8.52952	-45.7807	-142.81	-9.95121	-70.4251	-136.993	-42.0977	-68.1453	-178.092	15.8923	-53.7641	-169.363	15.6404	-78.251	-159.592	2.95802	-109.939	-198.037	4.24265	-43.4277	-193.363	8.89142	-71.6164	-192.735	3.22165	-99.8644	-215.156	-13.3253	-35.3205	-215.75	-12.7929	-60.8694	-218.141	-15.2899	-85.4596	-200.685	0.545522	6.13554	-208.074	-6.77073	37.9877	-171.544	9.56403	22.098	
53	0.441667	-139.247	-15.1033	25.1024	-117.961	-17.6303	-3.63826	-109.909	-23.738	-34.0512	-123.152	-33.0392	-53.0761	-151.259	11.5211	-49.362	-140.73	-8.62225	-75.1768	-136.322	-37.3091	-72.9567	-170.991	20.734	-56.272	-166.873	19.6314	-85.6327	-161.002	8.22443	-114.839	-191.142	12.1636	-48.5907	-193.475	14.1102	-74.0079	-190.255	12.1016	-99.9941	-211.874	-5.29435	-38.4791	-214.156	-4.76046	-63.2717	-217.643	-6.34947	-85.5657	-202.419	5.41598	6.59718	-203.99	-1.48415	32.2895	-167.475	11.6405	18.0955	
54	0.45	-138.344	-13.1179	13.2303	-120.773	-19.2724	-9.65724	-113.628	-24.8259	-41.4221	-127.86	-32.7642	-60.9367	-152.575	12.792	-57.3949	-144.962	-10.6888	-83.7983	-143.826	-38.0309	-79.4006	-176.832	24.4293	-60.2998	-168.668	23.3766	-91.5761	-163.752	12.8981	-122.037	-197.264	16.0622	-52.3813	-198.465	20.2991	-81.5021	-194.383	17.0589	-106.191	-215.153	1.54871	-45.3795	-218.768	1.59038	-67.1707	-220.254	-1.88211	-90.4231	-200.669	11.3427	-0.1054	-203.438	0.32736	28.1523	-165.778	11.1398	12.7945	
